<svg xmlns="http://www.w3.org/2000/svg" viewBox="0 0 306.47 306.47" style="transform: scale(2) translate(0,30%)"><defs><style>.cls-1{fill:#fff;}</style></defs><title>Logo white base</title><g id="Calque_2" data-name="Calque 2"><g id="Calque_1-2" data-name="Calque 1"><path class="cls-1" d="M179.91,35.09,152.45,62.55,125,35.09,103.38,56.7a49.42,49.42,0,0,1,98.15,0Z"/><path class="cls-1" d="M179.91,90,152.45,62.55,128.24,86.77l-.12.11L125,90l-3.22-3.22,0,0L103.38,68.39c0,.33.08.67.13,1,.13.93.28,1.86.47,2.79a49.12,49.12,0,0,0,1.59,6c.07.23.15.46.23.68a48.83,48.83,0,0,0,2.52,5.93c.43.86.88,1.7,1.37,2.53l.24.4c.65,1.12,1.36,2.21,2.13,3.28.4.58.82,1.14,1.25,1.7s.87,1.11,1.33,1.65c.67.8,1.37,1.58,2.11,2.35a.08.08,0,0,1,0,0l.71.73,0,0,.92.9c.62.58,1.25,1.15,1.89,1.7,1,.82,1.94,1.61,2.94,2.34a49.48,49.48,0,0,0,59.34-.78,50.55,50.55,0,0,0,4.76-4.2,49.25,49.25,0,0,0,14.13-29.11Zm-27.46,9.33L139.83,86.72l12.62-12.63,12.62,12.63Z"/><path class="cls-1" d="M183.15,86.77a4.58,4.58,0,0,1-6.48,0L152.45,62.55,128.24,86.77l-.12.11a4.59,4.59,0,0,1-6.35-.09l0,0L103.38,68.39c0,.33.08.67.13,1,.13.93.28,1.86.47,2.79a49.12,49.12,0,0,0,1.59,6c.07.23.15.46.23.68a48.83,48.83,0,0,0,2.52,5.93c.43.85.89,1.7,1.37,2.53l.24.4c.66,1.12,1.37,2.21,2.13,3.28.4.58.82,1.14,1.25,1.7s.87,1.11,1.33,1.65c.68.8,1.38,1.58,2.11,2.35a.08.08,0,0,1,0,0l.76.77.92.9c.62.58,1.25,1.15,1.89,1.7,1,.82,1.94,1.61,2.94,2.34a49,49,0,0,0,59.34-.78,50.55,50.55,0,0,0,4.76-4.2,49.25,49.25,0,0,0,14.13-29.11Zm-30.7,12.57L139.83,86.72l12.62-12.63,12.62,12.63Z"/><polygon class="cls-1" points="165.07 86.72 152.45 94.2 139.83 86.72 152.45 79.23 165.07 86.72"/><path class="cls-1" d="M141.35,59,128.87,46.42a5.09,5.09,0,0,0-7.21,0L109.07,58.87a5.1,5.1,0,0,0,0,7.22l12.48,12.59a5.11,5.11,0,0,0,7.22,0l12.58-12.48A5.09,5.09,0,0,0,141.35,59Zm-7.49,6.11L127.64,65l-.14,6.22-5-.11.14-6.23-6.23-.13.11-5,6.23.14.14-6.23,5,.11L127.75,60l6.22.14Z"/><path class="cls-1" d="M196.08,58.9,183.51,46.39a5.1,5.1,0,0,0-7.21,0L163.79,59a5.09,5.09,0,0,0,0,7.21L176.38,78.7a5.09,5.09,0,0,0,7.21,0l12.5-12.57A5.1,5.1,0,0,0,196.08,58.9Zm-22.7,8.28a4.85,4.85,0,1,1,4.91-4.77A4.85,4.85,0,0,1,173.38,67.18Zm13,.2a4.84,4.84,0,1,1,4.91-4.77A4.84,4.84,0,0,1,186.36,67.38Z"/><path class="cls-1" d="M213.34,48V73.11a6.19,6.19,0,0,1-6.16,6.16h-4.05a53.3,53.3,0,0,0-1.48-37.44h1.22a53,53,0,0,0-100.82,0h1.22a53.3,53.3,0,0,0-1.48,37.44H97.74a6.2,6.2,0,0,1-6.17-6.16V48a6.17,6.17,0,0,1,5.07-6,58.11,58.11,0,0,1,111.62,0A6.17,6.17,0,0,1,213.34,48Z"/><path class="cls-1" d="M181.78,97.9H168.5a1,1,0,0,1,0-2h13.28a19.64,19.64,0,0,0,16.73-9.27l5.61-9a1,1,0,1,1,1.69,1.07l-5.61,9A21.61,21.61,0,0,1,181.78,97.9Z"/><rect class="cls-1" x="165.26" y="93.17" width="11.35" height="7.45" rx="2.03"/><path class="cls-1" d="M91.07,42h7a1,1,0,0,1,1,1V78.27a1,1,0,0,1-1,1h-7a2.35,2.35,0,0,1-2.35-2.35V44.33A2.35,2.35,0,0,1,91.07,42Z"/><path class="cls-1" d="M208.18,42h7a1,1,0,0,1,1,1V78.26a1,1,0,0,1-1,1h-7a2.35,2.35,0,0,1-2.35-2.35V44.32A2.35,2.35,0,0,1,208.18,42Z" transform="translate(422.02 121.23) rotate(180)"/><path class="cls-1" d="M152.45,62.55a137.06,137.06,0,0,1,11-14.42Q169.27,41.3,175.62,35t13.16-12.22A134.62,134.62,0,0,1,203.2,11.8a133.63,133.63,0,0,1-10.95,14.42Q186.39,33,180,39.38T166.87,51.59A137.06,137.06,0,0,1,152.45,62.55Z"/><path class="cls-1" d="M152.46,62.55a137.06,137.06,0,0,1-14.42-11q-6.82-5.87-13.16-12.21T112.66,26.22a134.62,134.62,0,0,1-11-14.42,134.62,134.62,0,0,1,14.42,11Q123,28.62,129.29,35T141.5,48.13A137.06,137.06,0,0,1,152.46,62.55Z"/></g></g></svg>